/* XPM */
static char * warn_door_xpm[] = {
"42 42 2 1",
" 	c #000000",
".	c #FFFF00",
"         ..........          ..........   ",
"        ..........          ..........    ",
"       ..........          ..........     ",
"      ..........          ..........      ",
"     ..........          ..........       ",
"    ..........          ..........        ",
"   ..........          ..........         ",
"  ..........          ..........          ",
" ..........          ..........          .",
"..........          ..........          ..",
".........          ..........          ...",
"........          ..........          ....",
".......          ..........          .....",
"......          ..........          ......",
".....          ..........          .......",
"....          ..........          ........",
"...          ..........          .........",
"..          ..........          ..........",
".          ..........          .......... ",
"          ..........          ..........  ",
"         ..........          ..........   ",
"        ..........          ..........    ",
"       ..........          ..........     ",
"      ..........          ..........      ",
"     ..........          ..........       ",
"    ..........          ..........        ",
"   ..........          ..........         ",
"  ..........          ..........          ",
" ..........          ..........          .",
"..........          ..........          ..",
".........          ..........          ...",
"........          ..........          ....",
".......          ..........          .....",
"......          ..........          ......",
".....          ..........          .......",
"....          ..........          ........",
"...          ..........          .........",
"..          ..........          ..........",
".          ..........          .......... ",
"          ..........          ..........  ",
"         ..........          ..........   ",
"        ..........          ..........    "};
