/* XPM */
static char * warn_door_xpm[] = {
"51 51 2 1",
" 	c #000000",
".	c #FFFF00",
"         ..........          ..........          ..",
"        ..........          ..........          ...",
"       ..........          ..........          ....",
"      ..........          ..........          .....",
"     ..........          ..........          ......",
"    ..........          ..........          .......",
"   ..........          ..........          ........",
"  ..........          ..........          .........",
" ..........          ..........          ..........",
"..........          ..........          .......... ",
".........          ..........          ..........  ",
"........          ..........          ..........   ",
".......          ..........          ..........    ",
"......          ..........          ..........     ",
".....          ..........          ..........      ",
"....          ..........          ..........       ",
"...          ..........          ..........        ",
"..          ..........          ..........         ",
".          ..........          ..........          ",
"          ..........          ..........          .",
"         ..........          ..........          ..",
"        ..........          ..........          ...",
"       ..........          ..........          ....",
"      ..........          ..........          .....",
"     ..........          ..........          ......",
"    ..........          ..........          .......",
"   ..........          ..........          ........",
"  ..........          ..........          .........",
" ..........          ..........          ..........",
"..........          ..........          .......... ",
".........          ..........          ..........  ",
"........          ..........          ..........   ",
".......          ..........          ..........    ",
"......          ..........          ..........     ",
".....          ..........          ..........      ",
"....          ..........          ..........       ",
"...          ..........          ..........        ",
"..          ..........          ..........         ",
".          ..........          ..........          ",
"          ..........          ..........          .",
"         ..........          ..........          ..",
"        ..........          ..........          ...",
"       ..........          ..........          ....",
"      ..........          ..........          .....",
"     ..........          ..........          ......",
"    ..........          ..........          .......",
"   ..........          ..........          ........",
"  ..........          ..........          .........",
" ..........          ..........          ..........",
"..........          ..........          .......... ",
".........          ..........          ..........  "};
